<?xml version="1.0" standalone="no"?>
<!DOCTYPE svg PUBLIC "-//W3C//DTD SVG 20010904//EN"
 "http://www.w3.org/TR/2001/REC-SVG-20010904/DTD/svg10.dtd">
<svg version="1.0" xmlns="http://www.w3.org/2000/svg"
 width="400.000000pt" height="400.000000pt" viewBox="0 0 400.000000 400.000000"
 preserveAspectRatio="xMidYMid meet">

<g transform="translate(0.000000,400.000000) scale(0.100000,-0.100000)"
fill="#000000" stroke="none">
<path d="M1760 3985 c-575 -66 -1112 -399 -1433 -890 -258 -396 -366 -853
-312 -1325 44 -390 196 -746 449 -1049 233 -280 526 -484 876 -609 134 -48
268 -79 425 -98 1098 -130 2092 654 2221 1751 64 550 -96 1090 -450 1514 -258
311 -594 530 -991 646 -228 67 -527 90 -785 60z m474 -35 c384 -40 799 -230
1085 -497 319 -296 504 -616 601 -1035 54 -237 58 -551 9 -793 -34 -167 -52
-225 -124 -400 -91 -220 -217 -407 -404 -599 -280 -286 -605 -464 -1006 -551
-244 -52 -568 -51 -813 5 -346 78 -661 242 -906 471 -271 253 -446 529 -549
864 -68 218 -87 347 -87 585 0 244 19 366 92 601 37 119 140 343 207 450 96
153 329 409 461 506 214 157 389 247 615 316 135 42 245 67 339 77 104 11 377
11 480 0z"/>
<path d="M1770 3915 c-676 -80 -1258 -512 -1537 -1140 -37 -83 -99 -268 -109
-320 -3 -16 -9 -47 -15 -68 -16 -62 -39 -285 -39 -387 0 -718 403 -1381 1040
-1712 219 -113 420 -174 670 -203 814 -94 1605 339 1955 1070 64 134 126 306
140 385 3 19 10 52 16 73 6 21 17 93 24 160 62 520 -84 1026 -415 1442 -235
295 -576 523 -950 635 -239 72 -522 95 -780 65z m363 -45 c51 0 57 -2 57 -20
0 -12 -34 -70 -75 -130 l-76 -110 53 0 c76 0 97 -8 90 -32 -3 -14 -10 -18 -26
-14 -11 3 -56 6 -98 6 -75 0 -78 1 -78 23 0 13 32 70 71 126 80 115 79 121 -3
121 -42 0 -48 3 -48 21 0 19 4 21 38 15 20 -3 63 -6 95 -6z m-264 -147 c56
-114 67 -142 55 -147 -31 -12 -41 -5 -57 35 l-16 40 -48 -6 c-54 -8 -73 -25
-73 -67 0 -24 -4 -28 -29 -28 -29 0 -29 1 -20 33 5 17 14 59 20 92 27 155 34
179 60 186 13 4 27 6 31 5 4 0 38 -65 77 -143z m578 102 c5 -3 33 -233 33
-272 0 -43 -5 -48 -34 -37 -11 4 -16 19 -16 45 0 37 -2 39 -42 49 -24 6 -48
13 -55 15 -7 2 -22 -14 -34 -35 -13 -22 -27 -40 -33 -40 -18 0 -39 17 -34 26
3 5 40 66 83 136 73 120 79 127 104 121 14 -3 27 -7 28 -8z m-887 -110 c18
-55 39 -117 46 -138 17 -44 14 -53 -20 -59 -20 -4 -40 11 -112 83 -48 49 -89
87 -91 85 -2 -1 13 -49 32 -106 19 -57 33 -105 32 -106 -1 -1 -11 -4 -23 -8
-19 -6 -24 5 -64 126 -24 73 -45 138 -47 144 -2 7 8 16 24 21 26 10 34 5 118
-73 49 -45 91 -82 92 -81 1 2 -13 47 -32 100 l-34 98 22 8 c12 5 23 8 23 7 1
0 16 -46 34 -101z m1099 46 c14 -9 11 -40 -14 -121 -36 -114 -32 -115 57 -24
45 46 84 84 87 84 3 0 12 -4 19 -9 11 -7 12 -25 2 -103 -18 -143 -14 -146 55
-49 64 89 71 96 94 82 16 -10 15 -12 -109 -184 -30 -42 -57 -76 -60 -76 -3 -1
-12 4 -20 9 -12 7 -12 12 -2 22 27 27 9 26 -35 -2 -26 -17 -55 -30 -64 -30
-28 0 -49 -11 -49 -25 0 -27 22 -26 76 0 30 15 58 24 62 20 9 -9 -39 -47 -94
-74 -24 -12 -45 -25 -48 -29 -2 -4 2 -50 9 -102 35 -265 57 -312 214 -469 123
-122 166 -187 182 -269 8 -45 8 -44 5 18 -5 93 -37 149 -160 278 -57 60 -115
131 -129 158 -27 54 -63 176 -71 239 -2 22 -8 59 -11 82 -7 37 -5 43 20 59 26
17 28 17 63 -2 67 -35 226 -161 298 -235 194 -201 327 -454 384 -733 29 -142
28 -412 -1 -557 -33 -163 -95 -322 -186 -477 l-27 -46 -27 85 c-14 47 -39 113
-56 146 -22 45 -30 75 -32 124 -3 95 -26 167 -60 187 -26 15 -28 19 -19 51 5
20 19 59 30 88 21 51 21 51 2 85 -30 50 -76 70 -152 65 -110 -8 -165 -70 -166
-189 l-1 -68 -35 0 c-19 0 -49 -4 -66 -9 -33 -9 -66 1 -45 13 6 4 11 18 11 32
0 22 -4 24 -42 24 -86 1 -168 63 -168 128 0 39 37 97 79 125 22 15 43 27 47
27 13 0 149 64 205 96 33 20 90 58 126 86 53 40 72 49 94 44 30 -6 46 7 49 39
4 35 0 45 -15 45 -10 0 -15 -10 -15 -30 0 -28 -2 -29 -31 -23 -23 4 -36 0 -57
-19 -78 -71 -200 -140 -350 -198 -130 -50 -172 -96 -172 -189 0 -39 6 -56 27
-82 34 -40 113 -77 158 -74 19 1 35 -1 35 -5 0 -16 -28 -29 -85 -39 -78 -15
-156 -53 -194 -96 -17 -19 -36 -35 -44 -35 -7 0 -28 13 -47 30 -35 29 -60 38
-60 21 0 -21 -72 -54 -120 -54 -81 0 -129 43 -163 146 -5 11 -17 17 -39 17
-36 0 -78 23 -78 44 0 9 17 11 63 8 59 -4 64 -2 104 32 50 44 67 90 60 161 -6
60 -40 146 -68 171 -10 9 -19 20 -19 24 0 4 37 11 82 15 207 18 328 57 412
135 53 49 106 149 113 215 7 54 21 57 57 14 49 -58 58 -86 54 -169 -2 -64 -8
-83 -30 -116 -33 -47 -75 -74 -117 -74 -36 0 -97 23 -123 47 -11 10 -18 12
-18 5 0 -7 19 -25 42 -42 35 -26 50 -30 102 -30 74 0 113 21 153 81 25 38 28
52 28 123 0 70 -4 88 -27 127 -30 51 -90 102 -115 97 -10 -2 -22 -25 -34 -66
-66 -233 -225 -302 -708 -302 -91 0 -209 -5 -261 -10 -201 -19 -340 -91 -422
-216 l-42 -64 -18 34 c-76 148 -119 437 -87 588 51 238 321 423 788 538 66 17
136 30 156 30 32 0 35 2 35 30 0 56 -22 131 -47 160 -32 39 -80 41 -114 5 -27
-28 -39 -31 -39 -11 0 20 87 96 110 96 12 0 39 -10 60 -22 39 -23 39 -23 87
-4 136 53 159 58 243 59 91 0 148 -12 288 -65 119 -44 208 -45 270 -4 46 31
53 41 22 31 -18 -6 -20 -3 -16 17 8 39 17 128 13 128 -3 0 -40 -37 -84 -81
-72 -74 -82 -80 -101 -70 -26 14 -27 27 -7 95 8 28 24 88 36 134 13 45 25 82
28 82 3 0 12 -4 20 -9z m-1416 -225 c77 -71 95 -91 86 -102 -17 -20 -29 -17
-61 13 -25 24 -30 25 -55 14 -66 -30 -72 -37 -61 -78 9 -33 8 -39 -13 -56
l-24 -19 -11 53 c-6 30 -20 101 -30 158 l-18 103 25 18 c28 22 8 34 162 -104z
m-337 -132 l5 -61 74 -22 c40 -11 80 -21 89 -21 23 0 20 -15 -6 -32 -19 -13
-31 -12 -105 7 -46 12 -83 19 -83 16 0 -3 18 -26 40 -51 22 -25 40 -48 40 -51
0 -3 -8 -13 -17 -22 -17 -14 -24 -8 -108 94 -49 60 -90 117 -90 126 0 27 34
28 54 1 10 -13 27 -34 38 -47 l20 -24 -5 81 c-4 77 -3 83 19 101 l24 19 3 -26
c1 -15 5 -55 8 -88z m1110 101 c-43 -15 -143 -20 -192 -10 -24 5 -44 0 -80
-19 -27 -14 -58 -26 -69 -26 -37 0 -238 -71 -330 -117 -430 -214 -725 -609
-812 -1088 -26 -144 -24 -375 5 -515 27 -132 70 -265 119 -367 49 -103 151
-261 210 -326 26 -29 58 -64 70 -78 l23 -26 -31 5 c-77 11 -285 331 -368 566
-60 171 -75 268 -75 496 0 179 3 218 23 310 118 528 475 939 975 1122 156 57
308 85 476 86 93 1 94 1 56 -13z m1160 -40 c3 -7 -13 -67 -36 -132 -24 -65
-45 -128 -47 -141 -7 -31 -17 -35 -37 -13 -13 14 -14 24 -6 45 16 43 13 52
-30 86 l-40 32 -34 -26 c-33 -25 -35 -25 -56 -8 -22 18 -22 18 111 104 108 71
136 85 152 77 10 -6 20 -16 23 -24z m-1512 -113 c-1 -73 -32 -170 -56 -178
-10 -3 -28 -7 -41 -10 -55 -9 -249 -79 -336 -120 -161 -76 -282 -178 -336
-284 -27 -54 -55 -179 -55 -248 0 -71 26 -215 57 -307 27 -85 110 -265 121
-265 4 0 18 20 31 46 13 25 47 66 76 92 110 101 239 139 515 152 131 6 189 5
198 -2 25 -22 61 -94 73 -147 15 -73 4 -134 -32 -175 -37 -42 -68 -51 -115
-31 -47 20 -52 19 -56 -6 -2 -17 -20 -28 -78 -48 -102 -37 -178 -75 -236 -121
-27 -21 -99 -72 -159 -113 -164 -111 -285 -248 -285 -322 0 -67 95 -173 215
-240 61 -35 84 -60 68 -76 -11 -11 -158 -28 -186 -22 -52 13 -219 209 -303
358 -130 230 -184 440 -184 715 0 259 40 430 154 655 177 347 461 592 837 719
57 20 106 36 109 36 3 0 5 -26 4 -58z m184 -22 c12 -24 22 -58 22 -75 l-1 -30
-14 33 c-23 53 -75 35 -75 -27 0 -21 -6 -23 -76 -35 l-32 -5 13 47 c25 95 63
145 110 140 24 -2 34 -11 53 -48z m970 -46 c347 -221 580 -561 678 -989 27
-116 27 -475 0 -590 -43 -183 -96 -322 -177 -465 -34 -60 -107 -170 -112 -170
-1 0 -2 13 -1 29 0 15 20 57 43 92 95 144 173 339 214 539 30 147 30 390 -1
540 -63 311 -195 561 -412 779 -75 74 -146 134 -215 180 -78 51 -101 71 -92
80 15 15 10 16 75 -25z m940 -859 c67 16 81 13 82 -23 0 -15 -6 -17 -80 -32
-48 -9 -63 -18 -120 -75 -36 -35 -68 -64 -71 -65 -4 0 -9 12 -12 27 -4 22 3
34 41 70 25 24 43 45 41 46 -2 2 -29 12 -59 23 -47 16 -55 23 -58 47 l-3 27
87 -31 87 -31 65 17z m-3494 6 c39 -10 96 -24 126 -30 70 -15 84 -23 76 -48
-7 -22 -8 -22 -151 11 -152 35 -152 35 -147 62 5 29 7 29 96 5z m41 -186 c129
-11 135 -13 135 -43 0 -26 -8 -31 -116 -78 l-116 -49 39 -7 c21 -4 58 -7 83
-8 65 -1 90 -9 90 -31 0 -18 -7 -18 -107 -13 -179 8 -193 11 -193 39 0 30 19
43 135 90 50 20 94 41 100 46 5 5 -19 9 -62 9 -38 0 -91 3 -117 6 -41 6 -46
10 -46 32 0 23 2 24 53 18 28 -3 84 -8 122 -11z m3556 -71 c21 -26 24 -120 4
-150 -53 -81 -242 -84 -282 -4 -22 43 -16 104 12 134 13 14 31 26 40 26 23 0
19 -52 -5 -68 -24 -15 -26 -49 -3 -74 13 -14 31 -18 88 -18 92 0 125 21 125
81 0 43 -9 47 -79 33 -24 -5 -31 -12 -31 -30 0 -15 -6 -24 -15 -24 -12 0 -15
13 -15 55 l0 55 74 0 c54 0 77 -4 87 -16z m-3470 -254 c28 -16 49 -63 49 -113
0 -38 -3 -46 -22 -50 -28 -8 -29 -7 -19 29 10 38 -5 84 -29 84 -22 0 -38 -19
-70 -84 -30 -61 -66 -85 -106 -71 -45 16 -67 57 -67 120 0 62 -1 60 32 70 21
6 23 5 17 -11 -28 -70 -13 -127 32 -122 22 2 33 15 57 62 45 85 80 110 126 86z
m3410 -71 c63 -31 82 -87 55 -154 -22 -51 -55 -68 -132 -66 -108 2 -174 51
-174 129 0 42 39 95 80 108 46 15 124 8 171 -17z m-3322 -268 c12 -46 18 -87
15 -92 -12 -21 -33 -7 -40 26 -3 19 -11 35 -17 35 -10 0 -69 -16 -184 -50 -35
-10 -63 -15 -63 -12 0 4 -3 17 -6 29 -5 18 0 22 28 28 18 4 62 15 98 25 36 10
78 21 93 25 29 6 31 17 11 68 -6 18 27 29 38 12 3 -5 16 -48 27 -94z m3331
-76 c0 -13 -19 -75 -41 -133 -8 -22 -10 -22 -44 -8 -19 8 -39 15 -43 16 -4 0
-51 15 -104 32 -76 25 -98 36 -98 50 0 10 6 21 13 23 7 3 65 -12 130 -34 l118
-39 10 27 c6 14 13 38 16 54 6 29 43 40 43 12z m-3265 -106 c4 -11 5 -22 3
-23 -1 -1 -63 -27 -136 -56 -80 -33 -136 -50 -142 -44 -25 26 -10 37 115 89
72 30 135 54 142 54 6 1 15 -8 18 -20z m3020 -98 c106 -50 139 -116 95 -188
-30 -50 -63 -67 -115 -60 -51 7 -136 56 -159 92 -44 67 18 183 99 185 11 0 47
-13 80 -29z m-2931 -89 c50 -86 53 -97 31 -106 -10 -3 -20 5 -30 24 -18 35
-21 36 -60 12 -16 -10 -57 -34 -90 -52 -33 -18 -69 -39 -81 -47 -19 -12 -22
-11 -32 11 -10 23 -8 27 31 49 23 13 74 43 114 66 l72 42 -19 31 c-15 24 -16
34 -7 40 21 13 24 10 71 -70z m2727 -175 c151 -121 162 -132 150 -156 -7 -11
-18 -21 -25 -21 -18 0 -211 39 -231 46 -8 4 -15 4 -15 2 0 -4 148 -130 169
-145 6 -4 -20 -33 -30 -33 -9 0 -202 159 -207 170 -1 4 2 19 8 34 9 26 12 27
57 20 27 -4 81 -15 121 -24 39 -10 72 -16 72 -14 0 2 -139 117 -158 130 -6 4
9 44 16 44 4 0 37 -24 73 -53z m-2618 5 c15 -16 9 -22 -79 -95 -98 -81 -110
-102 -77 -139 9 -10 24 -18 34 -18 18 0 99 59 162 119 37 35 37 35 57 16 19
-20 18 -21 -57 -85 -93 -80 -122 -100 -147 -100 -32 0 -84 42 -102 83 -17 37
-17 40 0 70 15 27 170 165 187 167 3 0 13 -8 22 -18z m197 -213 c19 -17 53
-46 74 -65 33 -29 37 -36 26 -49 -12 -14 -16 -13 -40 10 l-27 26 -64 -73 c-35
-41 -74 -87 -87 -103 -22 -28 -23 -28 -42 -9 -19 19 -18 20 67 119 l85 99 -27
22 c-18 14 -26 28 -22 38 9 22 17 20 57 -15z m1600 6 c8 -2 42 -4 75 -5 53 -1
65 -5 99 -34 l38 -33 -48 -27 c-42 -24 -180 -86 -190 -86 -9 0 -24 83 -24 139
0 56 2 62 18 56 9 -4 24 -8 32 -10z m660 -116 c41 -50 76 -94 78 -97 1 -4 -7
-13 -18 -19 -17 -11 -24 -7 -61 37 -23 28 -45 50 -48 50 -4 0 -23 -14 -44 -31
l-37 -31 40 -48 c45 -53 47 -62 24 -81 -14 -11 -19 -10 -36 11 -11 14 -50 60
-86 103 -37 43 -68 83 -70 87 -2 5 8 12 22 16 19 5 31 -1 53 -26 l28 -31 42
32 41 32 -20 28 c-18 23 -19 31 -8 44 7 8 15 15 19 15 4 0 40 -41 81 -91z
m-382 12 c10 -6 3 -14 -25 -32 -63 -38 -212 -109 -236 -112 -45 -4 -20 25 43
52 36 16 92 44 125 64 64 39 73 41 93 28z m-1561 -125 c3 -3 0 -12 -6 -20 -10
-12 -19 -10 -63 17 -49 31 -50 31 -65 12 -36 -49 -36 -52 18 -85 42 -26 49
-33 39 -46 -11 -12 -18 -11 -56 11 -23 14 -47 25 -52 25 -11 0 -57 -69 -51
-74 2 -2 28 -19 57 -38 45 -30 50 -37 37 -48 -12 -10 -27 -5 -85 30 -38 23
-70 46 -70 51 0 5 34 64 76 133 l75 124 71 -43 c38 -24 73 -46 75 -49z m1627
33 c21 -17 24 -24 15 -35 -13 -16 -45 -19 -54 -4 -16 27 -75 -6 -75 -42 0 -30
47 -114 76 -137 37 -29 67 -26 107 8 31 28 34 28 44 11 10 -14 8 -21 -10 -38
-31 -27 -82 -52 -109 -52 -57 0 -131 79 -149 160 -13 56 8 103 58 129 49 26
64 26 97 0z m-1366 -45 c68 -20 159 -74 125 -74 -21 0 -214 64 -243 81 -27 15
58 10 118 -7z m1109 -77 c-3 -8 -26 -20 -51 -27 -26 -7 -49 -17 -52 -22 -6 -9
14 -78 22 -78 3 0 28 7 56 16 41 14 51 15 58 3 12 -19 6 -25 -45 -39 -25 -7
-48 -16 -50 -21 -3 -4 2 -26 11 -49 18 -44 19 -44 93 -14 18 8 37 11 42 8 22
-13 5 -34 -38 -49 -27 -9 -63 -23 -81 -31 -33 -14 -33 -14 -47 20 -8 19 -30
79 -49 135 -19 56 -37 105 -40 110 -3 5 16 16 42 26 26 9 63 23 82 30 37 14
56 6 47 -18z m-986 -53 c37 -18 59 -66 53 -114 -5 -49 -33 -121 -57 -147 -41
-46 -136 -38 -178 15 -18 23 -20 37 -17 92 5 69 35 141 65 159 27 16 100 13
134 -5z m759 -14 c0 -14 -9 -21 -35 -26 l-34 -6 6 -47 c3 -25 14 -83 23 -128
15 -71 16 -82 3 -87 -33 -13 -40 -5 -52 66 -15 89 -32 171 -37 179 -2 4 -20 3
-39 -1 -32 -7 -35 -6 -35 16 0 19 5 24 25 24 14 0 27 1 30 1 17 5 122 27 133
28 6 1 12 -8 12 -19z m-487 -25 c48 -5 57 -10 57 -26 0 -18 -5 -19 -66 -13
l-65 7 3 -44 3 -44 53 -3 c45 -3 52 -6 52 -24 0 -19 -4 -20 -54 -15 l-54 5 -6
-36 c-3 -21 -6 -52 -6 -69 0 -28 -4 -33 -24 -33 -14 0 -27 3 -29 7 -2 5 2 64
9 133 7 69 13 135 13 147 1 19 6 22 29 18 15 -2 53 -7 85 -10z"/>
<path d="M1767 3770 c-4 -25 -10 -55 -13 -67 -6 -20 -3 -23 22 -23 51 0 54 10
25 75 l-27 60 -7 -45z"/>
<path d="M2377 3726 c-15 -27 -27 -52 -27 -56 0 -10 59 -24 67 -16 3 3 1 31
-3 63 l-9 58 -28 -49z"/>
<path d="M2236 3209 c-101 -41 -201 -135 -194 -184 1 -11 -1 -26 -6 -34 -5 -8
-5 -12 0 -9 119 56 202 70 295 48 57 -13 143 -53 154 -70 3 -5 11 -10 17 -10
25 0 -40 53 -101 83 -58 28 -75 32 -146 31 -46 0 -98 -7 -123 -16 -36 -13 -41
-14 -31 -1 18 21 46 34 114 55 l60 18 -50 -4 c-27 -3 -61 -8 -75 -12 -23 -7
-24 -6 -10 11 24 30 113 82 166 98 47 15 48 16 14 16 -19 0 -57 -9 -84 -20z"/>
<path d="M2520 2460 c0 -16 -7 -20 -32 -21 l-33 -1 33 -14 c18 -8 32 -21 32
-31 0 -13 7 -10 30 12 29 28 30 30 10 37 -11 4 -20 14 -20 23 0 8 -4 15 -10
15 -5 0 -10 -9 -10 -20z"/>
<path d="M1115 3561 c11 -52 13 -65 14 -83 1 -16 4 -15 36 3 19 12 35 24 34
27 0 4 -21 25 -46 47 l-46 40 8 -34z"/>
<path d="M3071 3403 l-54 -37 33 -28 34 -27 17 47 c9 26 20 55 24 65 9 22 9
22 -54 -20z"/>
<path d="M3620 1808 c-32 -17 -38 -60 -12 -86 29 -29 125 -47 173 -33 63 19
65 81 4 107 -51 21 -136 27 -165 12z"/>
<path d="M3425 1250 c-26 -29 -11 -67 40 -101 58 -40 109 -55 139 -41 56 25
39 82 -42 133 -56 35 -110 39 -137 9z"/>
<path d="M1543 428 c-25 -27 -53 -106 -53 -148 0 -49 42 -80 85 -64 49 19 81
190 41 220 -28 20 -49 17 -73 -8z"/>
</g>
</svg>
